<?xml version="1.0" encoding="iso-8859-1"?>
<!-- Generator: Adobe Illustrator 25.3.0, SVG Export Plug-In . SVG Version: 6.00 Build 0)  -->
<svg version="1.1" id="Layer_1" xmlns="http://www.w3.org/2000/svg" xmlns:xlink="http://www.w3.org/1999/xlink" x="0px" y="0px"
	 viewBox="0 0 720 720" style="enable-background:new 0 0 720 720;" xml:space="preserve">
<g>
	<path style="fill:none;stroke:#0F1021;stroke-width:15;stroke-linecap:round;stroke-miterlimit:10;" d="M204.47,455.96
		c0-14.511,0-29.023,0-43.534"/>
	<polyline style="fill:none;stroke:#0F1021;stroke-width:15;stroke-linecap:round;stroke-miterlimit:10;" points="204.47,173.552 
		204.47,80.694 609.638,80.694 609.638,639.306 204.47,639.306 204.47,546.448 	"/>
	<path style="fill:none;stroke:#0F1021;stroke-width:15;stroke-linecap:round;stroke-miterlimit:10;" d="M204.47,312.166
		c0-16.71,0-33.42,0-50.13"/>
	<path style="fill:none;stroke:#0F1021;stroke-width:15;stroke-linecap:round;stroke-miterlimit:10;" d="M110.362,218.405
		c62.738,0,125.477,0,188.215,0"/>
	<path style="fill:none;stroke:#0F1021;stroke-width:15;stroke-linecap:round;stroke-miterlimit:10;" d="M110.362,360
		c62.738,0,125.477,0,188.215,0"/>
	<path style="fill:none;stroke:#0F1021;stroke-width:15;stroke-linecap:round;stroke-miterlimit:10;" d="M110.362,502.279
		c62.738,0,125.477,0,188.215,0"/>
	
		<rect x="375.051" y="167.053" style="fill:none;stroke:#0F1021;stroke-width:8;stroke-linecap:round;stroke-miterlimit:10;" width="97.621" height="70.7"/>
	
		<rect x="375.051" y="479.095" style="fill:none;stroke:#0F1021;stroke-width:8;stroke-linecap:round;stroke-miterlimit:10;" width="97.621" height="70.7"/>
	
		<rect x="375.051" y="324.65" style="fill:none;stroke:#0F1021;stroke-width:8;stroke-linecap:round;stroke-miterlimit:10;" width="97.621" height="70.7"/>
</g>
</svg>
